<svg enable-background="new 0 0 400 400" viewBox="0 0 400 400" xmlns="http://www.w3.org/2000/svg"><path d="m240.5 157.6c4.25 2.49 8.3 4.43 11.87 7.04 4.71 3.44 4.33 5.7.32 9.87-3.73 3.88-6.82 8.38-10.51 13.01 6.41 2.26 12.13 4.21 17.8 6.3 5.81 2.14 9.71 6.06 11.24 12.25 1.24 4.99-.38 10.59-4.1 12.25-4.62 2.06-7.91-.43-10.81-3.73-5.88-6.72-11.77-13.44-18.02-20.58-10.1 11.46-19.72 22.96-33.99 29.33 10.6-21.06 25.4-40.23 26.92-65.89-20.08 1.8-39.72 3.56-60.61 5.43 5.11 3.49 9.29 5.96 13.03 8.97 5.75 4.64 5.48 5.12.34 10.08-3.9 3.77-7.35 8.02-11.41 12.51 4.72 1.75 9.01 3.33 13.29 4.94 2.32.87 4.67 1.67 6.91 2.71 8.66 4.04 10.65 10.89 5.64 19.07-2.29 3.74-5.25 4.71-8.66 1.92-3.69-3.01-6.72-6.82-10.14-10.16-4.02-3.92-8.15-7.73-12.22-11.57-11.42 9.58-21.4 21.92-37.74 26 3.86-5.2 7.48-10.59 11.62-15.55 9.44-11.31 17.26-23.48 21.1-37.86.75-2.82.73-5.85 1.19-9.82-9.74 1.44-18.85 2.46-27.83 4.17-19.14 3.65-38.19 7.8-57.35 11.37-3.35.62-7.27.08-10.52-1.08-5.1-1.83-10.09-4.27-14.64-7.2-1.98-1.28-3.86-4.45-3.83-6.73.05-3.64 3.77-2.7 6.29-2.95 28.8-2.78 57.59-5.57 86.99-8.41-.98-10-1.65-19.03-2.79-28.01-1.09-8.52-2.41-17.04-4.15-25.45-.69-3.3-2.73-6.34-4.3-9.43-1.95-3.83-1.12-6.75 2.86-6.9 10.09-.38 19.15 3.02 27 9.33.71.57.96 2.6.54 3.58-4.79 11.4-1.94 23.25-2.24 34.9-.16 6.08-.03 12.17-.03 18.87 9.15-.96 17.17-1.78 25.19-2.64 5.1-.55 10.18-1.28 15.29-1.71 2.68-.23 4.24-.77 4.07-4.07-1.2-24.32-1.96-48.66-3.53-72.96-.35-5.39-3.25-10.66-5.25-15.88-1.67-4.37-1.2-5.37 3.37-5.61 9.08-.48 17.21 2.53 25.09 6.64 2.97 1.55 2.95 3.7 2.53 6.64-1.56 10.75-2.8 21.54-4.35 33.83 10.17-2.11 18.99-3.77 27.73-5.8 5.46-1.27 11.02-2.55 16.12-4.78 9.88-4.32 18 .16 26.16 4.46 1.6.84 2.97 3.25 3.18 5.08.1.85-2.74 2.69-4.43 2.99-17.23 3.03-34.47 6.08-51.79 8.56-4.98.71-10.21-.39-16.13-.7v38.74c1.17 0 2.92.13 4.63-.02 31.65-2.73 63.32-5.39 94.95-8.33 8.23-.76 15.39 1.22 21.83 6.14 2.89 2.21 5.81 4.49 8.23 7.18 1.36 1.52 2.86 4.42 2.25 5.8-.64 1.46-3.71 2.6-5.71 2.6-10.77-.03-21.53-.78-32.29-.68-25 .24-49.99.82-74.98 1.28-.27-.01-.52.26-1.22.66z"/><path d="m111.22 331.23c9.3 0 18.05.33 26.77-.06 28.8-1.3 57.6-2.59 86.37-4.46 11.02-.72 22-2.67 32.89-4.66 7.28-1.33 14.09-.92 20.87 1.92 3.6 1.51 7.33 2.72 11.66 4.3.5-5.46 1.12-10.35 1.36-15.25 1.5-29.63 3.12-59.25 4.26-88.89.4-10.39.1-20.85-4.35-30.74-2.12-4.69.33-7.96 4.89-6.46 8.09 2.67 15.93 6.15 23.75 9.57 2.59 1.13 3.88 3.33 2.79 6.55-6.83 20.2-6.79 41.43-9.11 62.3-2.6 23.38-5.06 46.77-8.01 70.11-.58 4.62-2.8 9.15-4.94 13.38-.8 1.58-3.58 3.03-5.38 2.95-1.35-.06-3.39-2.51-3.71-4.18-.7-3.56-3.02-2.89-5.25-2.83-34.95.98-69.91 1.74-104.84 3.06-19.02.72-38.01 2.46-57.02 3.58-6.74.4-13.38.4-19.98 2.8-2.33.85-6.13-1.81-9.03-3.32-1.15-.59-1.59-2.46-2.48-3.65-4.72-6.35-7.3-12.08-2.37-20.45 3.26-5.55 3.42-13.45 3.42-20.31.01-22.68-.17-45.39-1.31-68.04-.58-11.5-2.97-22.97-8-33.65-.89-1.89-1.4-5.69-.49-6.32 1.87-1.3 5.14-2.01 7.26-1.29 7.17 2.43 14.09 5.58 21.09 8.48 2.6 1.08 2.84 2.91 2.47 5.63-1.11 8.16-2.36 16.38-2.48 24.59-.36 26.36-.19 52.73-.31 79.09-.06 5.13-.5 10.25-.79 16.25z"/><path d="m151.22 252.92c-5.37-.83-10.78-1.48-16.09-2.59-2-.42-4-1.65-5.59-2.99-1.08-.91-1.98-2.69-1.9-4.02.04-.72 2.25-1.75 3.56-1.89 10.2-1.08 20.45-1.83 30.64-2.97 28.76-3.21 57.48-6.78 86.27-9.69 7.27-.74 14.76.24 22.11.84 2.15.18 4.37 1.55 6.2 2.85 1.16.82 2.63 3.02 2.26 3.77-.68 1.37-2.51 2.85-4.02 3.04-19.36 2.45-38.73 4.8-58.12 6.92-18.26 1.99-36.55 3.68-54.82 5.48-3.46.34-6.93.57-10.39.84-.04.14-.08.28-.11.41z"/><path d="m235.47 285.5c-10.04 11.64-21.43 20.23-34.93 25.75-.45-.37-.9-.73-1.35-1.1 1.14-1.92 1.94-4.19 3.48-5.7 9.79-9.56 16.26-21.24 21.5-33.63 1.71-4.03 2.14-8.58 3.49-12.78.43-1.34 2.26-3.48 2.93-3.3 8.67 2.32 16.95 5.43 22.16 13.52-4.08 3.44-7.91 6.67-11.73 9.89 8.32 3.06 16.14 5.6 23.66 8.83 5.42 2.33 8.16 10.87 5.91 16.22-1.87 4.45-6.04 6.4-10.05 3.63-5.24-3.63-9.81-8.23-14.68-12.41-3.33-2.88-6.68-5.74-10.39-8.92z"/><path d="m174.68 283.08c5.99 2.36 11.44 4.25 16.67 6.63 5.39 2.45 7.07 13.97 2.82 18.11-2.71 2.64-5.72 2.56-8.45.19-4.63-4.01-9.13-8.16-13.57-12.38-1.65-1.57-2.96-3.49-4.92-5.84-9.64 12.47-20.92 21.26-34.16 27.46-.53-.38-1.06-.76-1.58-1.14 1.4-2.29 2.5-4.84 4.25-6.83 10.25-11.64 19.34-23.94 23.72-39.13.27-.95.52-1.92.71-2.89 1.43-7.44 2.59-8.14 9.25-4.6 3.78 2.01 7.39 4.42 10.79 7.03 2.29 1.76 3.31 3.95.29 6.52-2.2 1.86-3.8 4.44-5.82 6.87z"/></svg>