<svg enable-background="new 0 0 400 400" viewBox="0 0 400 400" xmlns="http://www.w3.org/2000/svg"><path d="m362.1 8.8c1.1.8 2.1 1.6 3.1 2.4l-1 1.1c-1.3-1.1-2.3-2-3-2.5zm1.9 4.8c.5.2.9.4 1.4.5-.6 2.3-1.3 4.5-1.9 6.8l-1.5-.5c.8-2.1 1.4-4.3 2-6.8zm-1-9.4c1.3.9 2.4 1.8 3.4 2.5l-1 1.1c-1.4-1.2-2.4-2.1-3.2-2.6zm3.7 2.2v-1.4h10.3v1.2c-.5 3.6-1.8 6.8-4 9.4 1.5 1.6 3.4 2.8 5.7 3.8-.3.4-.7.8-1.1 1.4-2.3-1.1-4.1-2.5-5.6-4.1-1.6 1.6-3.6 3.1-5.9 4.3-.3-.5-.7-.9-1-1.3 2.4-1.1 4.4-2.5 6-4.1-1.9-2.5-3-5.6-3.3-9.3h-1.1zm8.8 0h-6.4c.3 3.3 1.3 6 3 8.2 2-2.3 3.1-5.1 3.4-8.2z" fill="#fbfafc"/><path d="m385.3 3.8h1.3v2.2h2.8v-2.2h1.3v2.2h4.1v9.1h1.7v1.3h-16.9v-1.3h1.7v-9.1h4.1v-2.2zm.4 13.1.7 1.2c-1.8.9-3.8 1.9-6 2.9-.2-.4-.5-.8-.8-1.3 2.3-1 4.3-1.9 6.1-2.8zm-3.1-6.4h2.8v-3.2h-2.8zm0 4.6h2.8v-3.3h-2.8zm4-4.6h2.8v-3.2h-2.8zm0 4.6h2.8v-3.3h-2.8zm3.7 1.9c2.1.9 4.1 1.8 6.1 2.7l-.7 1.3c-2.2-1.1-4.2-2-6.1-2.9zm3.2-9.7h-2.8v3.2h2.8zm-2.8 7.8h2.8v-3.3h-2.8z" fill="#fbfafc"/><path d="m21.62 212.15c13.26-2.46 25.79-4.76 38.3-7.14 2.06-.39 4.14-.98 6.07-1.82 32.38-14.09 64.63-28.48 97.18-42.18 7.82-3.29 16.58-4.4 24.96-6.3 14.61-3.32 29.2-6.73 43.91-9.54 5.17-.99 10.68-.76 15.98-.38 20.84 1.51 40.65 7.2 59.76 15.47 1.31.57 2.56 1.37 3.71 2.24 2.94 2.23 6.08 4.29 8.66 6.9 10.13 10.26 23.33 13.12 36.72 15.4 8.45 1.44 11.43 3.7 13.28 12.16.78 3.58.8 7.32 1.35 10.97.33 2.24-.63 3.1-2.62 3.76-11.88 3.91-23.74 7.9-35.57 11.97-2.19.75-4.32 1.82-6.28 3.05-4.64 2.92-9.41 5.71-13.68 9.11-10.98 8.76-24.2 11.69-37.32 14.9-25.76 6.31-51.94 7.9-78.31 6.19-13.71-.89-27.34-2.98-41.05-3.98-5.96-.44-12.01.62-18.03.78-2.39.06-4.94-.05-7.17-.8-17.04-5.76-34.04-11.66-51.02-17.6-2.51-.88-4.95-2.03-7.29-3.28-6.87-3.68-14.19-5.24-21.73-3.34-11.07 2.8-18.89-1.72-25.31-10.1-1.48-1.91-2.78-3.97-4.5-6.44zm171.06 15.82c15.46.32 30.88-.19 46.15-2.83 17.88-3.09 34.9-8.62 50.55-18 .66-.39 1.4-.81 1.82-1.41 6.36-9.08 2.92-20.45-7.51-24.15-8.94-3.17-18.02-5.97-27.07-8.84-1.56-.49-3.31-.76-4.92-.61-11.47 1.05-22.95 2.02-34.37 3.42-17.34 2.12-34.32 5.88-51.04 11.05-18.72 5.79-35.2 15.8-51.47 26.28-1.06.68-1.63 2.72-1.67 4.14-.02.67 1.67 1.77 2.74 2.03 25.24 6 50.89 8.56 76.79 8.92z" fill="#000001"/></svg>