<svg enable-background="new 0 0 400 400" viewBox="0 0 400 400" xmlns="http://www.w3.org/2000/svg"><path d="m191.06 119.92c-8.37-3.58-11.81-11.23-15.79-18.41-4.92-8.87-9.77-17.78-14.61-26.69-.68-1.24-1.36-2.54-1.68-3.9-.96-4.08.56-6.06 4.65-5.06 6.41 1.57 12.73 3.63 18.89 5.98 3.66 1.4 7.05 3.61 10.39 5.71 14.44 9.06 18.31 23.23 10.63 38.49-.34.67-.55 1.41-1.1 2.86 8.22-.91 15.91-1.5 23.51-2.64 18.94-2.82 37.82-6.03 56.78-8.71 2.87-.41 6.39.49 8.97 1.93 11.08 6.19 20.24 14.73 27.93 24.77 1.58 2.07 2.52 4.75 3.29 7.28 1.21 4.01-.14 7.48-3.98 9.11-4.91 2.09-9.98 3.99-15.16 5.19-14.74 3.43-27.82 10.32-40.46 18.29-1.38.87-3.32.87-5 1.27.06-1.65-.37-3.5.24-4.91 4.33-9.86 8.92-19.62 13.34-29.44 1.23-2.74 2.47-5.53 3.18-8.43 1.33-5.37-.48-7.98-6.06-8.07-6-.1-12.04.32-18.03.92-20.33 2.05-40.75 3.63-60.95 6.6-24.86 3.65-49.52 8.69-74.33 12.74-5.38.88-11.03.13-16.83.13-1.36 6.12-2.6 11.67-3.82 17.22-1.98 8.94-5.09 17.45-11.37 24.27-2.57 2.78-6.12 4.74-9.42 6.75-4.8 2.93-8.97.57-11.62-3.08-4.3-5.93-6.75-12.75-3.04-20 3.54-6.91 8.09-13.35 11.1-20.46 4.85-11.47 8.73-23.34 13.2-34.98.54-1.4 1.97-3 3.31-3.36 1.02-.28 3.1.94 3.71 2.05 1.97 3.58 3.69 7.33 5.08 11.17.97 2.68 2.35 3.69 5.19 3.48 19.43-1.46 38.87-2.75 58.3-4.2 8.85-.66 17.68-1.55 26.52-2.33 1.52-.14 3.05-.29 4.57-.44.16-.37.31-.74.47-1.1z"/><path d="m301.74 333.2c-18.24 1.45-31.92-6.31-41.09-21.49-12.68-21-24.9-42.29-36.74-63.77-7.56-13.72-13.81-28.16-21.15-42.01-4.7-8.87-10.97-16.61-19.55-22.3-1.83-1.21-4.32-4.47-3.82-5.54 1.11-2.39 3.64-4.96 6.1-5.64 2.75-.76 6.35-.18 9.07 1 7.57 3.28 12.43 9.62 16.64 16.46 9.04 14.72 18.14 29.4 27.09 44.17 19.89 32.8 48.54 55.58 82.5 72.32 8.09 3.99 16.27 7.8 24.39 11.72 1.28.62 2.81 1.13 3.65 2.15 1.19 1.46 2.41 3.33 2.51 5.08.04.83-2.4 2.37-3.88 2.62-9.04 1.49-18.11 2.88-27.22 3.95-6.14.72-12.33.87-18.5 1.28z"/><path d="m48.05 335.23c1.87-2.16 3.63-4.43 5.63-6.45 26.19-26.4 51.32-53.57 66.7-88.17 3.97-8.93 6.67-18.1 7.19-27.89.22-4.23 2.89-6.19 6.76-4.1 7.92 4.27 15.65 8.94 23.11 13.97 3.62 2.45 3.24 8.1.57 11.5-6.94 8.8-14.12 17.47-20.39 26.74-18.37 27.19-40.8 50.08-69.15 66.83-6.03 3.56-12.62 6.17-18.95 9.22-.49-.54-.98-1.09-1.47-1.65z"/></svg>